<svg xmlns="http://www.w3.org/2000/svg" viewBox="0 0 24 30" x="0px" y="0px"><title>split-vertical</title><path fill="#f50057" d="M15,7a1,1,0,0,1-.71-.29L12,4.41,9.71,6.71A1,1,0,0,1,8.29,5.29l3-3a1,1,0,0,1,1.41,0l3,3A1,1,0,0,1,15,7Z"/><path fill="#f50057" d="M12,22a1,1,0,0,1-.71-.29l-3-3a1,1,0,0,1,1.41-1.41L12,19.59l2.29-2.29a1,1,0,0,1,1.41,1.41l-3,3A1,1,0,0,1,12,22Z"/><path fill="#f50057" d="M19,15H5a1,1,0,0,1,0-2H19a1,1,0,0,1,0,2Z"/><path fill="#f50057" d="M19,11H5A1,1,0,0,1,5,9H19a1,1,0,0,1,0,2Z"/><path fill="#f50057" d="M12,11a1,1,0,0,1-1-1V3a1,1,0,0,1,2,0v7A1,1,0,0,1,12,11Z"/><path fill="#f50057" d="M12,22a1,1,0,0,1-1-1V14a1,1,0,0,1,2,0v7A1,1,0,0,1,12,22Z"/><text x="0" y="39" fill="#000000" font-size="5px" font-weight="bold" font-family="'Helvetica Neue', Helvetica, Arial-Unicode, Arial, Sans-serif">Created by Omar Safaa</text><text x="0" y="44" fill="#000000" font-size="5px" font-weight="bold" font-family="'Helvetica Neue', Helvetica, Arial-Unicode, Arial, Sans-serif">from the Noun Project</text></svg>