<svg xmlns="http://www.w3.org/2000/svg" viewBox="0 0 24 30" x="0px" y="0px"><title>compress</title><path fill="#f50057" d="M15,19a1,1,0,0,1-.71-.29L12,16.41,9.71,18.71a1,1,0,0,1-1.41-1.41l3-3a1,1,0,0,1,1.41,0l3,3A1,1,0,0,1,15,19Z"/><path fill="#f50057" d="M12,10a1,1,0,0,1-.71-.29l-3-3A1,1,0,0,1,9.71,5.29L12,7.59l2.29-2.29a1,1,0,0,1,1.41,1.41l-3,3A1,1,0,0,1,12,10Z"/><path fill="#f50057" d="M19,13H5a1,1,0,0,1,0-2H19a1,1,0,0,1,0,2Z"/><path fill="#f50057" d="M12,22a1,1,0,0,1-1-1V15a1,1,0,0,1,2,0v6A1,1,0,0,1,12,22Z"/><path fill="#f50057" d="M12,10a1,1,0,0,1-1-1V3a1,1,0,0,1,2,0V9A1,1,0,0,1,12,10Z"/><text x="0" y="39" fill="#000000" font-size="5px" font-weight="bold" font-family="'Helvetica Neue', Helvetica, Arial-Unicode, Arial, Sans-serif">Created by Omar Safaa</text><text x="0" y="44" fill="#000000" font-size="5px" font-weight="bold" font-family="'Helvetica Neue', Helvetica, Arial-Unicode, Arial, Sans-serif">from the Noun Project</text></svg>