<svg xmlns="http://www.w3.org/2000/svg" version="1.1" x="0px" y="0px" viewBox="0 0 100 125" enable-background="new 0 0 100 100" xml:space="preserve"><path d="M34,63.94l-8.58,8.58l-8.273-8.273L14.6,85.459l21.213-2.545l-8.271-8.272l8.58-8.58c0.586-0.586,0.586-1.536,0-2.121  C35.535,63.354,34.586,63.354,34,63.94z"/><rect x="38.671" y="38.609" width="22.663" height="22.66"/><path d="M74.579,72.401L66,63.821c-0.586-0.586-1.535-0.586-2.121,0s-0.586,1.536,0,2.121l8.58,8.58l-8.273,8.273L85.4,85.341  l-2.549-21.213L74.579,72.401z"/><path d="M64.939,36.499c0.384,0,0.768-0.146,1.061-0.439l8.579-8.579l8.272,8.273L85.4,14.541l-21.215,2.545l8.272,8.273  l-8.579,8.579c-0.586,0.586-0.586,1.536,0,2.121C64.172,36.353,64.556,36.499,64.939,36.499z"/><path d="M27.541,25.358l8.271-8.272L14.6,14.541l2.547,21.213l8.273-8.274L34,36.06c0.293,0.293,0.677,0.439,1.061,0.439  s0.768-0.146,1.061-0.439c0.586-0.585,0.586-1.535,0-2.121L27.541,25.358z"/><text x="0" y="115" fill="#000000" font-size="5px" font-weight="bold" font-family="'Helvetica Neue', Helvetica, Arial-Unicode, Arial, Sans-serif">Created by Tomas Knopp</text><text x="0" y="120" fill="#000000" font-size="5px" font-weight="bold" font-family="'Helvetica Neue', Helvetica, Arial-Unicode, Arial, Sans-serif">from the Noun Project</text></svg>